<svg id="Layer_1" enable-background="new 0 0 256 256" height="512" viewBox="0 0 256 256" width="512" xmlns="http://www.w3.org/2000/svg"><g><g><g><g><path d="m222.812 72.514h-163.417v9.542h161.728l-16.186 72.566h-145.542v9.542h146.543c3.747 0 6.992-2.601 7.808-6.258l16.874-75.65c1.114-4.998-2.688-9.742-7.808-9.742z" fill="#808285"/></g></g><g><g><path d="m222.812 72.514h-163.417v9.542h161.728l-16.186 72.566h-145.542v9.542h146.543c3.747 0 6.992-2.601 7.808-6.258l16.874-75.65c1.114-4.998-2.688-9.742-7.808-9.742z" fill="#808285"/></g></g><g><g><g><path d="m222.24 77.056h-162.845v5h161.73z" fill="#58595b"/></g></g></g><g><g><g><path d="m225.383 72.942c.456 1.335.572 2.812.237 4.314l-16.874 75.65c-.816 3.657-4.061 6.258-7.808 6.258h-141.543v5h146.543c3.747 0 6.992-2.601 7.808-6.258l16.874-75.65c.917-4.113-1.499-8.048-5.237-9.314z" fill="#58595b"/></g></g></g><g><g><g><path d="m88.341 82.056h9.542v72.566h-9.542z" fill="#808285"/></g></g><g><g><path d="m92.883 82.056v67.566h-4.542v5h9.542v-72.566z" fill="#58595b"/></g></g><g><g><path d="m120.816 82.056h9.542v72.566h-9.542z" fill="#808285"/></g></g><g><g><path d="m125.358 82.056v67.566h-4.542v5h9.542v-72.566z" fill="#58595b"/></g></g><g><g><path d="m153.291 82.056h9.542v72.566h-9.542z" fill="#808285"/></g></g><g><g><path d="m157.833 82.056v67.566h-4.542v5h9.542v-72.566z" fill="#58595b"/></g></g><g><g><path d="m185.766 82.056h9.542v72.566h-9.542z" fill="#808285"/></g></g><g><g><path d="m190.308 82.056v67.566h-4.542v5h9.542v-72.566z" fill="#58595b"/></g></g></g><g><g><g><path d="m217.183 99.716h-157.788v9.542h155.66z" fill="#808285"/></g></g><g><g><path d="m211.068 99.716-1.013 4.542h-150.66v5h155.66l2.128-9.542z" fill="#58595b"/></g></g><g><g><path d="m211.004 127.42h-151.609v9.542h149.481z" fill="#808285"/></g></g><g><g><path d="m204.889 127.42-1.013 4.542h-144.481v5h149.481l2.128-9.542z" fill="#58595b"/></g></g></g><g><g><g><g><g><g><g><path d="m80.62 194.447c-10.572 0-19.142 8.57-19.142 19.142s8.57 19.142 19.142 19.142 19.142-8.57 19.142-19.142-8.57-19.142-19.142-19.142zm0 29.276c-5.597 0-10.134-4.537-10.134-10.134s4.537-10.134 10.134-10.134 10.134 4.537 10.134 10.134-4.537 10.134-10.134 10.134z" fill="#e63950"/></g></g><g><g><path d="m80.62 199.122c-7.99 0-14.468 6.477-14.468 14.468s6.477 14.468 14.468 14.468 14.468-6.477 14.468-14.468-6.478-14.468-14.468-14.468zm0 24.601c-5.597 0-10.134-4.537-10.134-10.134s4.537-10.134 10.134-10.134 10.134 4.537 10.134 10.134-4.537 10.134-10.134 10.134z" fill="#d10028"/></g></g></g></g><g><g><path d="m80.62 219.083c-3.29 0-6.138-2.285-6.851-5.496l-5.331-24.002h24.363l-5.331 24.002c-.713 3.211-3.561 5.496-6.85 5.496z" fill="#808285"/></g></g><g><g><path d="m78.399 209.4c-.939 0-1.76-.66-1.96-1.56-.109-.53-.02-1.06.271-1.51.29-.45.729-.77 1.25-.88 1.07-.24 2.149.45 2.39 1.52.11.52.021 1.05-.27 1.51-.28.45-.73.76-1.25.87-.141.04-.29.05-.431.05zm-1.739-7.81c-.931 0-1.75-.66-1.95-1.56l-1.36-6.13c-.12-.52-.02-1.06.26-1.51.29-.45.74-.76 1.261-.87 1.05-.24 2.149.46 2.38 1.51l1.359 6.13c.24 1.07-.439 2.14-1.52 2.38-.14.04-.28.05-.43.05z" fill="#939598"/></g></g><g><g><path d="m86.691 189.585-4.22 19.002c-.713 3.211-3.561 5.496-6.851 5.496-.613 0-1.203-.103-1.774-.253.802 3.079 3.571 5.253 6.774 5.253 3.289 0 6.138-2.285 6.851-5.496l5.331-24.002z" fill="#58595b"/></g></g></g></g><g><g><g><g><g><g><path d="m188.569 194.447c-10.572 0-19.142 8.57-19.142 19.142s8.57 19.142 19.142 19.142 19.142-8.57 19.142-19.142-8.57-19.142-19.142-19.142zm0 29.276c-5.597 0-10.134-4.537-10.134-10.134s4.537-10.134 10.134-10.134 10.134 4.537 10.134 10.134-4.537 10.134-10.134 10.134z" fill="#e63950"/></g></g><g><g><path d="m188.569 199.122c-7.99 0-14.468 6.477-14.468 14.468s6.477 14.468 14.468 14.468 14.468-6.477 14.468-14.468-6.478-14.468-14.468-14.468zm0 24.601c-5.597 0-10.134-4.537-10.134-10.134s4.537-10.134 10.134-10.134 10.134 4.537 10.134 10.134-4.537 10.134-10.134 10.134z" fill="#d10028"/></g></g><g><g><circle cx="188.569" cy="213.589" fill="#bcbec0" r="5.494"/></g></g><g><g><circle cx="188.569" cy="213.589" fill="#58595b" r="3.344"/></g></g></g></g><g><g><path d="m188.569 219.083c-3.29 0-6.138-2.285-6.851-5.496l-5.331-24.002h24.363l-5.331 24.002c-.713 3.211-3.561 5.496-6.85 5.496z" fill="#808285"/></g></g><g><g><path d="m188.529 189.585-3.11 14.002c-.557 2.507-2.422 4.432-4.776 5.164l1.074 4.836c.713 3.211 3.561 5.496 6.851 5.496s6.138-2.285 6.851-5.496l5.331-24.002z" fill="#58595b"/></g></g><g><g><path d="m194.64 189.585-4.22 19.002c-.713 3.211-3.561 5.496-6.851 5.496-.613 0-1.203-.103-1.774-.253.802 3.079 3.571 5.253 6.774 5.253 3.289 0 6.138-2.285 6.851-5.496l5.331-24.002z" fill="#414042"/></g></g></g></g></g><g><g><path d="m207.409 180.04h-138.473v-126.664c0-3.157-1.857-6.019-4.74-7.306l-25.621-11.433-3.883 8.716 22.331 9.949c1.443.643 2.372 2.074 2.372 3.654v127.855c0 2.635 2.136 4.771 4.771 4.771h143.449c2.789 0 5.02-2.395 4.748-5.24-.237-2.481-2.462-4.302-4.954-4.302z" fill="#808285"/></g></g><g><g><g><path d="m63.936 48.376v129.664c0 1.105.895 2 2 2h3v-126.664c0-3.157-1.857-6.019-4.74-7.306l-.722-.322c.291.833.462 1.715.462 2.628z" fill="#58595b"/></g></g><g><g><path d="m54.395 51.956c0-1.579-.929-3.011-2.372-3.654l-16.3-7.262-1.031 2.313 19.703 8.778z" fill="#58595b"/></g></g><g><g><path d="m212.363 184.342c-.237-2.48-2.462-4.302-4.954-4.302h-.035c-.12 2.528-2.202 4.542-4.759 4.542h-143.22v.229c0 2.635 2.136 4.771 4.771 4.771h143.449c2.789 0 5.02-2.395 4.748-5.24z" fill="#58595b"/></g></g></g><g><g><path d="m17.076 30.282c1.83-4.108 6.644-5.954 10.751-4.124l24.775 11.038c4.108 1.83 5.954 6.644 4.124 10.751-1.83 4.108-6.644 5.954-10.751 4.124l-24.775-11.038c-4.108-1.83-5.954-6.644-4.124-10.751z" fill="#e63950"/></g></g><g><g><path d="m52.603 37.196-.649-.289c.676 1.901.659 4.052-.227 6.04-1.83 4.108-6.644 5.954-10.751 4.124l-24.127-10.749c.721 2.026 2.232 3.767 4.351 4.711l24.775 11.038c4.108 1.83 8.921-.016 10.751-4.124 1.831-4.107-.016-8.921-4.123-10.751z" fill="#d10028"/></g></g></g><g><g><path d="m185.766 115.677v-45.12c0-1.739-.928-3.346-2.433-4.215l-39.075-22.56c-1.506-.869-3.361-.869-4.867 0l-39.075 22.56c-1.506.869-2.433 2.476-2.433 4.215v45.12c0 1.739.928 3.346 2.433 4.215l39.075 22.56c1.506.869 3.361.869 4.867 0l39.075-22.56c1.505-.869 2.433-2.476 2.433-4.215z" fill="#ffa91a"/></g></g><g><g><path d="m183.333 66.343-7.567-4.369v43.703c0 1.739-.928 3.345-2.433 4.215l-39.075 22.56c-1.506.869-3.361.869-4.867 0l-31.508-18.192v1.417c0 1.739.928 3.345 2.433 4.215l39.075 22.56c1.506.869 3.361.869 4.867 0l39.075-22.56c1.506-.869 2.433-2.476 2.433-4.215v-45.12c0-1.738-.928-3.345-2.433-4.214z" fill="#f79219"/></g></g><g><g><g><path d="m137.012 116.161c-2.042 0-4.084-.779-5.642-2.337l-15.713-15.713c-3.116-3.117-3.116-8.168 0-11.284 3.117-3.115 8.168-3.115 11.284 0l10.071 10.072 19.986-19.987c3.117-3.115 8.168-3.115 11.284 0 3.116 3.117 3.116 8.168 0 11.284l-25.628 25.628c-1.558 1.558-3.599 2.337-5.642 2.337z" fill="#fff"/></g></g></g><g><g><g><path d="m132.012 91.899h.001l-5.072-5.072-.005-.004z" fill="#f1f2f2"/></g></g><g><g><path d="m168.283 76.912c-.899-.899-1.962-1.529-3.09-1.909.938 2.782.306 5.976-1.91 8.194l-25.628 25.628c-1.558 1.557-3.6 2.337-5.642 2.337s-4.084-.779-5.642-2.337l5 5c1.558 1.557 3.6 2.337 5.642 2.337s4.084-.779 5.642-2.337l25.628-25.628c3.115-3.117 3.115-8.168 0-11.285z" fill="#f1f2f2"/></g></g></g></g></svg>